<?xml version="1.0" encoding="utf-8"?>
<!-- Svg Vector Icons : http://www.onlinewebfonts.com/icon -->
<!DOCTYPE svg PUBLIC "-//W3C//DTD SVG 1.1//EN" "http://www.w3.org/Graphics/SVG/1.1/DTD/svg11.dtd">
<svg version="1.1" xmlns="http://www.w3.org/2000/svg" xmlns:xlink="http://www.w3.org/1999/xlink" x="0px" y="0px" viewBox="0 0 1000 1000" enable-background="new 0 0 1000 1000" xml:space="preserve">
<metadata> Svg Vector Icons : http://www.onlinewebfonts.com/icon </metadata>
<g><path d="M970.4,661.4L970.4,661.4l-420-420l0,0C537.6,228.2,519.8,220,500,220c0,0-0.1,0-0.2,0s-0.1,0-0.2,0c-19.8,0-37.6,8.2-50.4,21.4l0,0l-420,420l0.2,0.2C17.4,674.2,10,691.2,10,710c0,38.7,31.3,70,70,70c21.2,0,40.3-9.5,53.1-24.4l366.8-366.8l371.6,371.6l0,0C884,772.5,901.1,780,920,780c38.7,0,70-31.3,70-70C990,691.1,982.5,674,970.4,661.4z"/></g>
</svg>